<svg width="60" height="60" viewBox="0 0 60 60" fill="none" xmlns="http://www.w3.org/2000/svg">
<g filter="url(#filter0_b_445_509)">
<rect width="60" height="60" rx="12" fill="#3744F5" fill-opacity="0.35"/>
<path d="M29.73 23.1907V4.80408L14.4702 30.126L29.73 23.1907Z" fill="#F3F5F7"/>
<path d="M29.73 39.1478V23.1907L14.4702 30.126L29.73 39.1478ZM29.73 23.1898L44.9925 30.1251L29.73 4.80408V23.1907V23.1898Z" fill="#F3F5F7"/>
<path d="M29.7297 23.1907V39.1487L44.9923 30.1269L29.7297 23.1916V23.1907Z" fill="#F3F5F7"/>
<path d="M29.73 42.0379L14.4702 33.0217L29.73 54.5269V42.0379Z" fill="#F3F5F7"/>
<path d="M44.9999 33.0217L29.729 42.0379V54.5269L44.9999 33.0217Z" fill="#F3F5F7"/>
<rect x="0.5" y="0.5" width="59" height="59" rx="11.5" stroke="url(#paint0_linear_445_509)" stroke-linecap="round" stroke-linejoin="round"/>
</g>
<defs>
<filter id="filter0_b_445_509" x="-24" y="-24" width="108" height="108" filterUnits="userSpaceOnUse" color-interpolation-filters="sRGB">
<feFlood flood-opacity="0" result="BackgroundImageFix"/>
<feGaussianBlur in="BackgroundImageFix" stdDeviation="12"/>
<feComposite in2="SourceAlpha" operator="in" result="effect1_backgroundBlur_445_509"/>
<feBlend mode="normal" in="SourceGraphic" in2="effect1_backgroundBlur_445_509" result="shape"/>
</filter>
<linearGradient id="paint0_linear_445_509" x1="9.55102" y1="6.99008" x2="58.5999" y2="56.955" gradientUnits="userSpaceOnUse">
<stop stop-color="white" stop-opacity="0.25"/>
<stop offset="1" stop-color="white" stop-opacity="0"/>
</linearGradient>
</defs>
</svg>
