<svg width="60" height="60" viewBox="0 0 60 60" fill="none" xmlns="http://www.w3.org/2000/svg">
<rect width="60" height="60" rx="12" fill="#F3F5F7"/>
<path d="M45.412 38.842C45.5305 39.7308 45.2638 40.1159 44.9675 40.1159C44.6713 40.1159 44.2565 39.7604 43.8121 39.0493C43.3677 38.3383 43.1899 37.5384 43.4269 37.1236C43.5751 36.8569 43.8713 36.7384 44.2861 36.8866C45.0268 37.1236 45.3231 38.3087 45.412 38.842Z" fill="#FF8C00"/>
<path d="M41.2345 40.7678C42.1529 41.5381 42.4195 42.4566 41.9455 43.0787C41.6789 43.4343 41.2345 43.612 40.7308 43.612C40.2271 43.612 39.6938 43.4343 39.3383 43.1084C38.5087 42.3973 38.2717 41.2122 38.805 40.5604C39.0124 40.2938 39.3679 40.1456 39.7531 40.1456C40.2568 40.1753 40.7604 40.4123 41.2345 40.7678Z" fill="#FF8C00"/>
<path d="M39.6939 48.1746C43.6047 48.1746 47.8414 49.5078 52.5225 53.6853C52.9965 54.1 53.6187 53.5964 53.2039 53.0631C48.582 47.2265 44.3157 46.1303 40.079 45.1822C34.8646 44.0268 32.1982 41.0937 30.3316 37.8939C29.9465 37.2421 29.7983 37.3606 29.7687 38.1902C29.7391 39.1975 29.7983 40.5307 30.0354 41.8343H29.4132C21.9767 41.8343 15.9328 35.7904 15.9328 28.3539C15.9328 20.9175 21.9767 14.8735 29.4132 14.8735C36.8496 14.8735 42.8936 20.9175 42.8936 28.3539C42.8936 28.8872 42.864 29.4205 42.8047 29.9242C41.827 29.7464 39.8716 29.7168 38.5088 29.8353C38.0051 29.8649 38.0644 30.1316 38.4495 30.1908C42.8936 30.9908 45.9748 33.7461 46.6563 38.7827C46.6859 38.9012 46.834 38.9309 46.8933 38.842C48.7302 35.7904 49.7671 32.2055 49.7671 28.3836C49.7671 17.1252 40.6419 8 29.3836 8C18.1252 8 9 17.1252 9 28.3836C9 39.6419 18.1252 48.7671 29.3836 48.7671C32.3759 48.7671 35.3386 48.1746 39.6939 48.1746Z" fill="#FF8C00"/>
</svg>
