<svg width="80" height="80" viewBox="0 0 80 80" fill="none" xmlns="http://www.w3.org/2000/svg">
<g clip-path="url(#clip0_42_1237)">
<g clip-path="url(#clip1_42_1237)">
<path d="M41.664 0C59.736 0 68.776 0 74.384 5.61544C80 11.2309 80 20.262 80 38.3322V41.6678C80 59.738 80 68.7691 74.384 74.3846C68.768 80 59.736 80 41.664 80H38.328C20.256 80 11.224 80 5.608 74.3846C0 68.7691 0 59.73 0 41.6598L0 38.3242C0 20.262 0 11.2229 5.616 5.61544C11.224 0 20.264 0 38.336 0H41.672H41.664Z" fill="#3744F5"/>
<path fill-rule="evenodd" clip-rule="evenodd" d="M15.104 38.053C28.5258 32.4081 37.4757 28.6866 41.9538 26.8886C54.7398 21.7548 57.3966 20.863 59.1283 20.8336C59.5091 20.8271 60.3607 20.9182 60.9123 21.3503C61.3781 21.7151 61.5063 22.208 61.5676 22.5539C61.6289 22.8998 61.7053 23.6878 61.6446 24.3035C60.9517 31.3313 57.9536 48.3857 56.4284 56.2569C55.783 59.5875 54.5122 60.7042 53.282 60.8135C50.6083 61.051 48.578 59.1078 45.9885 57.4691C41.9363 54.905 39.6471 53.3088 35.7137 50.8066C31.1681 47.915 34.1149 46.3256 36.7054 43.7283C37.3834 43.0485 49.1636 32.705 49.3916 31.7666C49.4201 31.6493 49.4466 31.2118 49.1774 30.9809C48.9081 30.7499 48.5108 30.8289 48.2241 30.8917C47.8177 30.9807 41.3443 35.1111 28.8039 43.2827C26.9665 44.5007 25.3022 45.0942 23.811 45.0631C22.1671 45.0288 19.0049 44.1658 16.6542 43.4282C13.7709 42.5234 11.4793 42.0451 11.6789 40.5085C11.7828 39.7082 12.9245 38.8897 15.104 38.053Z" fill="white"/>
</g>
</g>
<defs>
<clipPath id="clip0_42_1237">
<rect width="80" height="80" fill="white"/>
</clipPath>
<clipPath id="clip1_42_1237">
<rect width="80" height="80" fill="white"/>
</clipPath>
</defs>
</svg>
