<svg width="24" height="25" viewBox="0 0 24 25" fill="none" xmlns="http://www.w3.org/2000/svg">
<path fill-rule="evenodd" clip-rule="evenodd" d="M1.64987 11.6794C8.09231 8.99804 12.3883 7.23034 14.5378 6.37627C20.675 3.93774 21.9503 3.51414 22.7815 3.50015C22.9643 3.49707 23.3731 3.54035 23.6379 3.74559C23.8614 3.9189 23.9229 4.153 23.9524 4.31731C23.9818 4.48162 24.0185 4.85592 23.9893 5.14838C23.6568 8.48655 22.2177 16.5874 21.4856 20.3262C21.1758 21.9082 20.5658 22.4387 19.9753 22.4906C18.6919 22.6034 17.7174 21.6804 16.4744 20.902C14.5294 19.684 13.4305 18.9259 11.5425 17.7373C9.36064 16.3638 10.7751 15.6089 12.0185 14.3751C12.344 14.0522 17.9985 9.13905 18.1079 8.69335C18.1216 8.63761 18.1343 8.42982 18.0051 8.32011C17.8759 8.21039 17.6851 8.24791 17.5475 8.27775C17.3524 8.32004 14.2452 10.282 8.22584 14.1635C7.34386 14.742 6.545 15.0239 5.82924 15.0091C5.04018 14.9929 3.52233 14.5829 2.39397 14.2326C1.00999 13.8028 -0.0899676 13.5756 0.00581423 12.8457C0.0557033 12.4656 0.603723 12.0768 1.64987 11.6794Z" fill="#A8B3CE"/>
</svg>
