<svg width="60" height="60" viewBox="0 0 60 60" fill="none" xmlns="http://www.w3.org/2000/svg">
<rect width="60" height="60" rx="12" fill="#F3F5F7"/>
<path fill-rule="evenodd" clip-rule="evenodd" d="M14.6276 10.1953L5.61627 29.1235C5.54638 29.2676 5.57841 29.4409 5.69489 29.5516L30.0322 52.8726C30.1764 53.0109 30.4021 53.0109 30.5462 52.8726L54.8835 29.553C55 29.4424 55.032 29.2691 54.9622 29.125L45.9509 10.1967C45.8912 10.0671 45.7616 9.98415 45.6189 9.98415H14.9624C14.8183 9.98269 14.6873 10.0657 14.6276 10.1953Z" fill="#50AF95"/>
<path fill-rule="evenodd" clip-rule="evenodd" d="M33.4161 31.0674C33.2414 31.0805 32.3386 31.1343 30.325 31.1343C28.7233 31.1343 27.5862 31.0863 27.1872 31.0674C20.9977 30.7951 16.3778 29.7176 16.3778 28.4276C16.3778 27.1376 20.9977 26.0616 27.1872 25.7849V29.9943C27.592 30.0234 28.751 30.0918 30.3526 30.0918C32.2746 30.0918 33.237 30.0118 33.4103 29.9957V25.7879C39.5867 26.063 44.1964 27.1405 44.1964 28.4276C44.1964 29.7147 39.5881 30.7922 33.4103 31.0659H33.4161V31.0674ZM33.4161 25.354V21.5872H42.0357V15.8418H18.5676V21.5858H27.1858V25.351C20.1809 25.6728 14.913 27.0604 14.913 28.7232C14.913 30.386 20.1809 31.7721 27.1858 32.0953V44.1657H33.4146V32.091C40.4035 31.7692 45.6627 30.383 45.6627 28.7217C45.6627 27.0604 40.4079 25.6743 33.4146 25.351H33.4161V25.354Z" fill="white"/>
</svg>
